#!OML:ASF Y:\EmotionMaleHayes\Project 1\Capture day 1\Session 1\Male1.ASF
:FULLY-SPECIFIED
:DEGREES
73
root -29.1825 17.077 1.37728 22.6313 84.2288 23.708
lowerback 4.11711 1.56186 -4.3143
upperback -0.0978727 1.86438 -0.79648
thorax -2.52105 0.983773 1.47958
lowerneck -20.6448 1.83166 4.16272
upperneck 20.34 1.61896 -1.2848
head 9.92568 0.956678 -0.899575
rclavicle -7.56314e-015 -2.98177e-015
rhumerus -36.5071 10.2464 -93.3206
rradius 30.494
rwrist 3.84531
rhand -9.61473 -31.8003
rfingers 7.12502
rthumb 16.3546 -61.1308
lclavicle -7.56314e-015 -2.98177e-015
lhumerus -32.5882 -9.51767 91.5423
lradius 22.4244
lwrist -17.3027
lhand -10.773 -25.4481
lfingers 7.12502
lthumb 15.2392 3.9706
rfemur 6.78726 -4.29698 12.7437
rtibia 3.98171
rfoot -13.8064 2.66606
rtoes 14.4629
lfemur 11.1442 0.210877 -16.6875
ltibia -0.984408
lfoot -12.0001 14.104
ltoes -9.22109
74
root -29.1804 17.0767 1.37676 24.7491 84.1939 25.8065
lowerback 4.083 1.56538 -4.49363
upperback -0.0887218 1.86223 -0.858447
thorax -2.49614 0.984474 1.51715
lowerneck -20.6681 1.84902 4.16614
upperneck 20.3408 1.63754 -1.272
head 9.93072 0.966899 -0.892813
rclavicle 7.43268e-015 -3.27995e-014
rhumerus -36.4316 10.2419 -93.3365
rradius 30.4737
rwrist 3.78029
rhand -9.75072 -32.0475
rfingers 7.12502
rthumb 16.2237 -61.3887
lclavicle 7.43268e-015 -3.27995e-014
lhumerus -32.5795 -9.46862 91.5174
lradius 22.4808
lwrist -17.4589
lhand -10.7896 -25.4193
lfingers 7.12502
lthumb 15.2232 4.00064
rfemur 6.80176 -4.28486 12.4856
rtibia 3.93463
rfoot -13.8023 2.70657
rtoes 14.3967
lfemur 11.1187 0.131275 -16.9684
ltibia -1.03805
lfoot -12.0025 14.1328
ltoes -9.14764
75
root -29.1783 17.077 1.37937 26.3681 84.1688 27.4389
lowerback 4.05428 1.55941 -4.65026
upperback -0.056463 1.84953 -0.901418
thorax -2.44961 0.978906 1.56255
lowerneck -20.6755 1.86977 4.12604
upperneck 20.3443 1.66203 -1.20301
head 9.93316 0.983388 -0.858269
rclavicle 1.55456e-014 -1.51076e-014
rhumerus -36.413 10.2413 -93.3266
rradius 30.5786
rwrist 3.76478
rhand -9.44856 -32.7302
rfingers 7.12502
rthumb 16.5146 -62.0474
lclavicle 1.55456e-014 -1.51076e-014
lhumerus -32.4917 -9.55697 91.5253
lradius 22.4739
lwrist -17.3733
lhand -10.7557 -25.4263
lfingers 7.12502
lthumb 15.2558 3.99112
rfemur 6.85548 -4.19315 12.3169
rtibia 3.87487
rfoot -13.8092 2.58904
rtoes 14.2495
lfemur 11.1382 -0.0479294 -17.1942
ltibia -1.10315
lfoot -12.0778 14.226
ltoes -8.80508
76
root -29.1766 17.0757 1.38284 25.0322 84.2657 26.134
lowerback 4.07764 1.55689 -4.48299
upperback -0.0399758 1.85349 -0.86522
thorax -2.44169 0.97839 1.50587
lowerneck -20.7362 1.87608 4.15341
upperneck 20.4438 1.65902 -1.19478
head 9.97998 0.986408 -0.859983
rclavicle -1.91548e-014 -7.55382e-015
rhumerus -36.3781 10.1475 -93.2752
rradius 30.6095
rwrist 3.80969
rhand -9.23551 -32.8429
rfingers 7.12502
rthumb 16.7197 -62.1429
lclavicle -1.91548e-014 -7.55382e-015
lhumerus -32.4166 -9.72887 91.5468
lradius 22.4459
lwrist -17.0701
lhand -10.6256 -25.53
lfingers 7.12502
lthumb 15.3812 3.87788
rfemur 6.91974 -4.12902 12.5422
rtibia 3.84594
rfoot -13.7886 2.46001
rtoes 14.117
lfemur 11.2131 -0.219878 -17.0194
ltibia -1.14672
lfoot -12.1688 14.3299
ltoes -8.9823
77
root -29.1767 17.0763 1.38476 24.7007 84.2913 25.8114
lowerback 4.13697 1.57847 -4.44112
upperback -0.0665889 1.87983 -0.866142
thorax -2.50265 0.992398 1.47764
lowerneck -20.6896 1.86758 4.26976
upperneck 20.4509 1.63899 -1.29974
head 9.97546 0.974297 -0.919337
rclavicle -2.69602e-015 -7.15625e-015
rhumerus -36.3608 10.0595 -93.2451
rradius 30.5391
rwrist 3.79385
rhand -9.35797 -32.4183
rfingers 7.12502
rthumb 16.6018 -61.7282
lclavicle -2.69602e-015 -7.15625e-015
lhumerus -32.4647 -9.77871 91.5444
lradius 22.4907
lwrist -17.0807
lhand -10.6043 -25.4853
lfingers 7.12502
lthumb 15.4016 3.92099
rfemur 6.92976 -4.12279 12.605
rtibia 3.83647
rfoot -13.772 2.33277
rtoes 13.1801
lfemur 11.2233 -0.10842 -16.9302
ltibia -1.13305
lfoot -12.0582 14.2864
ltoes -9.5284
78
root -29.1772 17.0784 1.38636 25.7817 84.2573 26.8707
lowerback 4.16117 1.59339 -4.55475
upperback -0.0857424 1.89182 -0.907567
thorax -2.53911 1.00075 1.49655
lowerneck -20.5592 1.86751 4.25352
upperneck 20.316 1.6393 -1.26094
head 9.90304 0.976675 -0.903474
rclavicle 1.13742e-014 4.57205e-015
rhumerus -36.3703 10.0409 -93.2569
rradius 30.5358
rwrist 3.75503
rhand -9.40054 -32.3402
rfingers 7.12502
rthumb 16.5608 -61.6536
lclavicle 1.13742e-014 4.57205e-015
lhumerus -32.5345 -9.77406 91.5135
lradius 22.6162
lwrist -17.2198
lhand -10.6292 -25.4546
lfingers 7.12502
lthumb 15.3776 3.95356
rfemur 6.90448 -4.11157 12.4768
rtibia 3.81655
rfoot -13.7661 2.31347
rtoes 12.9638
lfemur 11.1505 0.0441413 -17.009
ltibia -1.06082
lfoot -11.9991 14.1553
ltoes -9.48938
79
root -29.176 17.08 1.38728 26.4935 84.2098 27.545
lowerback 4.11363 1.57818 -4.6511
upperback -0.0660583 1.87053 -0.912676
thorax -2.49381 0.990343 1.54819
lowerneck -20.5495 1.89256 4.07128
upperneck 20.2653 1.68795 -1.0835
head 9.88128 1.0053 -0.804004
rclavicle 4.77394e-015 1.31198e-014
rhumerus -36.3752 10.1836 -93.2869
rradius 30.6475
rwrist 3.65255
rhand -9.46665 -32.3918
rfingers 7.12502
rthumb 16.4972 -61.7104
lclavicle 4.77394e-015 1.31198e-014
lhumerus -32.5114 -9.62486 91.4577
lradius 22.7136
lwrist -17.2651
lhand -10.6748 -25.6049
lfingers 7.12502
lthumb 15.3337 3.80655
rfemur 6.85631 -4.11733 12.3617
rtibia 3.83287
rfoot -13.7627 2.4788
rtoes 14.1466
lfemur 11.0086 0.333307 -16.9985
ltibia -0.863439
lfoot -12.0476 13.8425
ltoes -9.25473
80
root -29.1736 17.081 1.38736 26.5448 84.2431 27.604
lowerback 4.09539 1.5467 -4.64455
upperback -0.0322575 1.83151 -0.892948
thorax -2.44666 0.969517 1.56858
lowerneck -20.612 1.91024 3.95889
upperneck 20.3087 1.71422 -0.955194
head 9.90665 1.02423 -0.736144
rclavicle -1.2716e-014 -1.43125e-014
rhumerus -36.3602 10.3145 -93.303
rradius 30.7147
rwrist 3.55149
rhand -9.50089 -32.305
rfingers 7.12502
rthumb 16.4642 -61.6263
lclavicle -1.2716e-014 -1.43125e-014
lhumerus -32.4476 -9.48358 91.4268
lradius 22.7308
lwrist -17.2267
lhand -10.6692 -25.647
lfingers 7.12502
lthumb 15.3391 3.76406
rfemur 6.89873 -4.0908 12.3666
rtibia 3.81303
rfoot -13.8214 2.51735
rtoes 14.8453
lfemur 11.0322 0.189992 -17.022
ltibia -0.876109
lfoot -12.0953 13.9182
ltoes -9.16497
81
root -29.1719 17.08 1.38853 26.5121 84.3056 27.5322
lowerback 4.07939 1.52937 -4.6255
upperback -0.0443917 1.81003 -0.868301
thorax -2.44907 0.958786 1.58498
lowerneck -20.6572 1.91529 3.90563
upperneck 20.3544 1.71716 -0.875342
head 9.93005 1.03147 -0.698485
rclavicle 1.28837e-014 -1.64991e-014
rhumerus -36.2901 10.2193 -93.2156
rradius 30.6598
rwrist 3.62769
rhand -9.09779 -32.5789
rfingers 7.12502
rthumb 16.8523 -61.8676
lclavicle 1.28837e-014 -1.64991e-014
lhumerus -32.4227 -9.52824 91.4892
lradius 22.7396
lwrist -17.0626
lhand -10.5935 -25.6075
lfingers 7.12502
lthumb 15.412 3.79798
rfemur 6.90171 -4.00163 12.4426
rtibia 3.76241
rfoot -13.8759 2.35352
rtoes 14.724
lfemur 11.184 -0.592312 -17.2404
ltibia -1.24793
lfoot -12.1564 14.6102
ltoes -8.67066
82
root -29.1723 17.0789 1.39017 27.8045 84.2978 28.7507
lowerback 4.04524 1.52101 -4.77075
upperback -0.0516975 1.79394 -0.876725
thorax -2.44077 0.952585 1.65921
lowerneck -20.6985 1.93237 3.93365
upperneck 20.3436 1.74277 -0.931018
head 9.93515 1.03818 -0.718797
rclavicle 9.77151e-015 -1.0138e-014
rhumerus -36.1448 10.0705 -93.1049
rradius 30.5546
rwrist 3.81736
rhand -8.68927 -33.003
rfingers 7.12502
rthumb 17.2455 -62.2578
lclavicle 9.77151e-015 -1.0138e-014
lhumerus -32.321 -9.58113 91.5366
lradius 22.7164
lwrist -16.9907
lhand -10.6422 -25.7193
lfingers 7.12502
lthumb 15.3652 3.6898
rfemur 6.82926 -4.01971 12.3167
rtibia 3.76459
rfoot -13.8311 2.31476
rtoes 15.1266
lfemur 11.0694 -0.561283 -17.3575
ltibia -1.21338
lfoot -12.087 14.5617
ltoes -9.3235
83
root -29.1724 17.0796 1.39097 29.1892 84.2937 30.1307
lowerback 4.05424 1.51944 -4.89058
upperback -0.0119274 1.78715 -0.910126
thorax -2.40699 0.949532 1.69259
lowerneck -20.8066 1.93579 4.04799
upperneck 20.3782 1.73905 -1.06936
head 9.96954 1.02836 -0.786342
rclavicle -2.1037e-014 2.78299e-015
rhumerus -36.0034 10.0968 -93.1279
rradius 30.5333
rwrist 3.6878
rhand -8.94514 -32.874
rfingers 7.12502
rthumb 16.9992 -62.1501
lclavicle -2.1037e-014 2.78299e-015
lhumerus -32.1658 -9.6801 91.554
lradius 22.7201
lwrist -16.9045
lhand -10.6652 -25.7288
lfingers 7.12502
lthumb 15.343 3.68196
rfemur 6.83594 -4.14543 12.1271
rtibia 3.77653
rfoot -13.772 2.44359
rtoes 15.8214
lfemur 10.9302 -0.20875 -17.38
ltibia -0.982036
lfoot -12.0173 14.2087
ltoes -10.5845
84
root -29.1711 17.0791 1.39311 29.8527 84.2809 30.7716
lowerback 4.0448 1.53859 -4.93907
upperback -0.00417294 1.81108 -0.94096
thorax -2.39581 0.961724 1.68671
lowerneck -20.9259 1.91402 4.11039
upperneck 20.4923 1.70048 -1.13492
head 10.0323 1.00852 -0.824729
rclavicle 1.11506e-015 2.14687e-014
rhumerus -36.0245 10.2743 -93.263
rradius 30.8812
rwrist 3.01463
rhand -9.13027 -33.1734
rfingers 7.12502
rthumb 16.821 -62.4648
lclavicle 1.11506e-015 2.14687e-014
lhumerus -32.1068 -9.78418 91.5811
lradius 22.7773
lwrist -16.7621
lhand -10.5121 -25.5311
lfingers 7.12502
lthumb 15.4905 3.86829
rfemur 6.82699 -4.19478 12.0411
rtibia 3.76357
rfoot -13.7812 2.41543
rtoes 15.4591
lfemur 10.9757 -0.624037 -17.6016
ltibia -1.11645
lfoot -12.1127 14.6351
ltoes -9.96708
85
root -29.1687 17.0772 1.39616 30.2475 84.2275 31.1347
lowerback 4.02595 1.57215 -5.01655
upperback -0.0201426 1.85261 -0.962921
thorax -2.40629 0.98382 1.7048
lowerneck -20.9533 1.89619 4.13251
upperneck 20.5529 1.67271 -1.15197
head 10.0586 0.996283 -0.838318
rclavicle -1.49772e-014 7.95139e-016
rhumerus -36.148 10.3344 -93.3269
rradius 31.2174
rwrist 2.68323
rhand -9.04372 -33.6364
rfingers 7.12502
rthumb 16.9043 -62.9207
lclavicle -1.49772e-014 7.95139e-016
lhumerus -32.0824 -9.87719 91.6139
lradius 22.7801
lwrist -16.6343
lhand -10.4258 -25.4232
lfingers 7.12502
lthumb 15.5736 3.96974
rfemur 6.80388 -4.16034 11.9898
rtibia 3.73358
rfoot -13.7692 2.33824
rtoes 14.4996
lfemur 11.0364 -1.00912 -17.8004
ltibia -1.27805
lfoot -12.2486 15.0195
ltoes -8.98776
86
root -29.1638 17.0746 1.39823 29.0102 84.1773 29.8476
lowerback 3.95377 1.61789 -4.94115
upperback -0.0314371 1.92105 -0.946483
thorax -2.38008 1.01654 1.67703
lowerneck -20.8737 1.89412 4.17261
upperneck 20.4954 1.66028 -1.15134
head 10.0236 0.993587 -0.846908
rclavicle 4.05645e-015 3.18055e-015
rhumerus -36.1896 10.117 -93.2188
rradius 30.8108
rwrist 3.58415
rhand -9.59084 -32.3726
rfingers 7.12502
rthumb 16.3776 -61.7012
lclavicle 4.05645e-015 3.18055e-015
lhumerus -32.0492 -9.99842 91.6395
lradius 22.7766
lwrist -16.5256
lhand -10.5677 -25.5066
lfingers 7.12502
lthumb 15.4369 3.89697
rfemur 6.73987 -4.13533 12.1108
rtibia 3.73843
rfoot -13.71 2.41682
rtoes 13.8737
lfemur 10.9873 -0.591872 -17.5304
ltibia -1.19538
lfoot -12.3175 14.5854
ltoes -8.29408
